<?xml version="1.0" encoding="utf-8"?>
<!-- Generator: Adobe Illustrator 23.1.0, SVG Export Plug-In . SVG Version: 6.00 Build 0)  -->
<svg version="1.1" id="Capa_1" xmlns="http://www.w3.org/2000/svg" xmlns:xlink="http://www.w3.org/1999/xlink" x="0px" y="0px"
	 viewBox="0 0 512 512" style="enable-background:new 0 0 512 512;" xml:space="preserve">
<style type="text/css">
	.st0{fill:#FFFFFF;}
</style>
<g>
	<g>
		<path class="st0" d="M360,130.3H200.2c-4.1,0-7.5,3.4-7.5,7.5s3.4,7.5,7.5,7.5H360c4.1,0,7.5-3.4,7.5-7.5
			C367.5,133.7,364.1,130.3,360,130.3z"/>
	</g>
</g>
<g>
	<g>
		<path class="st0" d="M165.3,130.3H140c-4.1,0-7.5,3.4-7.5,7.5s3.4,7.5,7.5,7.5h25.3c4.1,0,7.5-3.4,7.5-7.5
			S169.4,130.3,165.3,130.3z"/>
	</g>
</g>
<g>
	<g>
		<path class="st0" d="M218.5,360.3H140c-4.1,0-7.5,3.4-7.5,7.5c0,4.1,3.4,7.5,7.5,7.5h78.5c4.1,0,7.5-3.4,7.5-7.5
			C226,363.7,222.6,360.3,218.5,360.3z"/>
	</g>
</g>
<g>
	<g>
		<path class="st0" d="M250,283.7H140c-4.1,0-7.5,3.4-7.5,7.5c0,4.1,3.4,7.5,7.5,7.5h110c4.1,0,7.5-3.4,7.5-7.5
			C257.5,287,254.1,283.7,250,283.7z"/>
	</g>
</g>
<g>
	<g>
		<path class="st0" d="M303.5,207H140c-4.1,0-7.5,3.4-7.5,7.5s3.4,7.5,7.5,7.5h163.5c4.1,0,7.5-3.4,7.5-7.5S307.7,207,303.5,207z"/>
	</g>
</g>
<g>
	<g>
		<path class="st0" d="M445.6,53.5H135.4c-27.5,0-49.8,22.4-49.8,49.8v295.3H7.5c-2,0-3.9,0.8-5.3,2.2c-1.4,1.4-2.2,3.4-2.2,5.4
			c0.3,29.8,21.7,52.3,49.8,52.3H360h0.9c27.5,0,49.8-22.4,49.8-49.8v-90.9c0-4.1-3.4-7.5-7.5-7.5c-4.1,0-7.5,3.4-7.5,7.5v90.9
			c0,19.2-15.6,34.8-34.8,34.8H360c-19.6,0-34.6-16.1-34.8-37.4c0-4.1-3.4-7.4-7.5-7.4H100.6V103.3c0-19.2,15.6-34.8,34.8-34.8H410
			c-0.2,0.2-0.4,0.5-0.6,0.7c-0.3,0.3-0.5,0.6-0.8,0.8c-0.3,0.3-0.5,0.6-0.8,0.9c-0.3,0.3-0.5,0.6-0.8,0.9c-0.3,0.3-0.5,0.6-0.7,0.9
			c-0.2,0.3-0.5,0.6-0.7,0.9c-0.2,0.3-0.5,0.7-0.7,1c-0.2,0.3-0.5,0.6-0.7,1c-0.2,0.3-0.4,0.7-0.6,1c-0.2,0.3-0.4,0.7-0.6,1
			c-0.2,0.3-0.4,0.7-0.6,1c-0.2,0.3-0.4,0.7-0.6,1c-0.2,0.4-0.4,0.7-0.5,1.1c-0.2,0.4-0.4,0.7-0.5,1.1c-0.2,0.4-0.3,0.7-0.5,1.1
			c-0.2,0.4-0.3,0.7-0.5,1.1c-0.2,0.4-0.3,0.8-0.4,1.1c-0.1,0.4-0.3,0.7-0.4,1.1c-0.1,0.4-0.3,0.8-0.4,1.2c-0.1,0.4-0.3,0.7-0.4,1.1
			c-0.1,0.4-0.2,0.8-0.3,1.2c-0.1,0.4-0.2,0.8-0.3,1.1c-0.1,0.4-0.2,0.8-0.3,1.3c-0.1,0.4-0.2,0.7-0.3,1.1c-0.1,0.4-0.2,0.9-0.2,1.3
			c-0.1,0.4-0.1,0.7-0.2,1.1c-0.1,0.5-0.1,1-0.2,1.4c0,0.3-0.1,0.7-0.1,1c-0.1,0.5-0.1,1.1-0.1,1.6c0,0.3-0.1,0.6-0.1,0.9
			c0,0.8-0.1,1.7-0.1,2.5v2.5v64.1c0,4.1,3.4,7.5,7.5,7.5s7.5-3.4,7.5-7.5v-56.6H488c2,0,3.9-0.8,5.3-2.2c1.4-1.4,2.2-3.4,2.2-5.4
			C495.2,76,473.7,53.5,445.6,53.5z M310.7,413.7c0.1,0.8,0.2,1.5,0.4,2.3c0,0.3,0.1,0.5,0.1,0.8c0.1,0.5,0.2,1,0.3,1.5
			c0.1,0.3,0.1,0.6,0.2,0.9c0.1,0.4,0.2,0.9,0.3,1.3c0.1,0.3,0.2,0.6,0.3,0.9c0.1,0.4,0.2,0.8,0.4,1.3c0.1,0.3,0.2,0.6,0.3,0.9
			c0.1,0.4,0.3,0.8,0.4,1.2c0.1,0.3,0.2,0.6,0.3,0.9c0.1,0.4,0.3,0.8,0.5,1.2c0.1,0.3,0.2,0.6,0.4,0.9c0.2,0.4,0.3,0.8,0.5,1.2
			c0.1,0.3,0.2,0.6,0.4,0.8c0.2,0.4,0.4,0.8,0.6,1.2c0.1,0.3,0.2,0.5,0.4,0.8c0.2,0.5,0.5,0.9,0.8,1.4c0.1,0.2,0.2,0.3,0.3,0.5
			c0.4,0.6,0.7,1.2,1.1,1.9c0.1,0.1,0.2,0.3,0.3,0.4c0.3,0.5,0.6,0.9,0.9,1.4c0.1,0.2,0.3,0.4,0.4,0.6c0.3,0.4,0.5,0.8,0.8,1.1
			c0.2,0.2,0.3,0.4,0.5,0.7c0.3,0.3,0.5,0.7,0.8,1c0.2,0.2,0.4,0.4,0.6,0.7c0.3,0.3,0.6,0.6,0.8,1c0.2,0.2,0.4,0.4,0.6,0.6
			c0.1,0.1,0.3,0.3,0.4,0.5H49.8l0,0c-17.2,0-30.9-12.4-34.1-29.8L310.7,413.7L310.7,413.7z M411.1,98.3c0-0.1,0-0.1,0-0.2
			c0-0.2,0.1-0.5,0.1-0.7c0.1-0.3,0.1-0.6,0.2-1c0-0.2,0.1-0.5,0.2-0.7c0.1-0.3,0.1-0.6,0.2-0.9c0.1-0.2,0.1-0.5,0.2-0.7
			c0.1-0.3,0.2-0.6,0.2-0.8c0.1-0.3,0.2-0.5,0.2-0.8c0.1-0.3,0.2-0.5,0.3-0.8c0.1-0.3,0.2-0.5,0.3-0.8c0.1-0.2,0.2-0.5,0.3-0.7
			c0.1-0.3,0.2-0.5,0.3-0.8c0.1-0.2,0.2-0.5,0.3-0.7c0.1-0.3,0.2-0.5,0.4-0.8c0.1-0.2,0.2-0.4,0.3-0.6c0.1-0.3,0.3-0.6,0.5-0.9
			c0.1-0.1,0.1-0.2,0.2-0.3c0.7-1.2,1.5-2.4,2.3-3.5c0,0,0,0,0,0c0.3-0.4,0.5-0.7,0.8-1.1c0-0.1,0.1-0.1,0.1-0.2
			c0.3-0.3,0.6-0.7,0.8-1c0.1-0.1,0.1-0.1,0.2-0.2c0.3-0.3,0.6-0.7,0.9-1c0-0.1,0.1-0.1,0.1-0.2c0.3-0.3,0.6-0.6,1-1
			c0,0,0.1-0.1,0.1-0.1c0.3-0.3,0.7-0.7,1.1-1c0,0,0,0,0,0c4.6-4,10.3-6.8,16.5-8c0,0,0,0,0,0c0.5-0.1,1-0.2,1.5-0.3
			c0,0,0.1,0,0.1,0c0.5-0.1,1-0.1,1.5-0.2c0.1,0,0.2,0,0.2,0c0.5,0,0.9-0.1,1.4-0.1c0.3,0,0.5,0,0.8,0c0.3,0,0.6,0,0.9,0
			c17.2,0,30.9,12.4,34.1,29.8L411.1,98.3L411.1,98.3z"/>
	</g>
</g>
<g>
	<g>
		<path class="st0" d="M512,191.8c0-0.1,0-0.2,0-0.3c0-0.7-0.2-1.4-0.4-2c0,0,0-0.1,0-0.1c0,0,0-0.1,0-0.1c-0.1-0.3-0.3-0.6-0.4-1
			c0,0,0-0.1-0.1-0.1c-0.1-0.3-0.3-0.5-0.5-0.8c0-0.1-0.1-0.1-0.1-0.2c-0.2-0.3-0.4-0.5-0.6-0.7c0-0.1-0.1-0.1-0.2-0.1
			c-0.2-0.2-0.4-0.4-0.7-0.6c0,0-0.1-0.1-0.1-0.1c-0.3-0.2-0.6-0.4-0.9-0.5c-0.1,0-0.1-0.1-0.2-0.1c-0.3-0.2-0.6-0.3-0.9-0.4
			c0,0,0,0,0,0c-0.3-0.1-0.7-0.2-1-0.3c-0.1,0-0.1,0-0.2,0c-0.3-0.1-0.7-0.1-1-0.1c-62.8-1.6-144.7,13.5-186.1,60.8
			c-18.1,20.7-26.5,46.9-34.6,72.3c-0.7,2.1-1.3,4.2-2,6.2c0,0.1-0.1,0.2-0.1,0.3l-12.7,45c-1.1,4,1.2,8.1,5.2,9.3
			c0.7,0.2,1.4,0.3,2,0.3c3.3,0,6.3-2.2,7.2-5.5l11.8-41.8c14.4-6.7,26-9.9,41.6-14.1c8.1-2.2,17.3-4.7,28.4-8.1
			c24.1-7.4,70.2-38.4,91.5-61.3c18.6-20.1,34.2-35,52.3-50c0,0,0,0,0.1-0.1c0.3-0.2,0.5-0.5,0.7-0.7c0,0,0,0,0,0
			c0.2-0.3,0.4-0.5,0.6-0.8c0-0.1,0.1-0.1,0.1-0.2c0.4-0.6,0.6-1.2,0.8-1.9c0-0.1,0-0.1,0.1-0.2c0.1-0.3,0.2-0.7,0.2-1c0,0,0,0,0,0
			c0-0.2,0-0.5,0.1-0.7C512,192,512,191.9,512,191.8z M329.9,255c17.5-19.9,44.2-35,79.6-44.7c9.5-2.6,19.5-4.8,29.9-6.5
			c-26.3,12.7-51.4,28.7-65.5,38.1c-22.7,15.1-47.1,33.5-65.2,49.8C314.1,278.3,320.5,265.7,329.9,255z M446,237.5
			c-20.7,22.4-65.3,51.2-84.8,57.2c-10.9,3.4-20,5.8-28,8c-7.2,2-13.8,3.8-20.3,5.8c2.9-2.8,6.3-5.9,10.4-9.4
			c16.2-14.1,37.2-30,59.1-44.6c37.9-25.3,72.2-43.1,97.3-50.8C468.6,213.7,457.9,224.6,446,237.5z"/>
	</g>
</g>
</svg>
