<?xml version="1.0" encoding="utf-8"?>
<!-- Generator: Adobe Illustrator 23.1.0, SVG Export Plug-In . SVG Version: 6.00 Build 0)  -->
<svg version="1.1" id="Layer_1" xmlns="http://www.w3.org/2000/svg" xmlns:xlink="http://www.w3.org/1999/xlink" x="0px" y="0px"
	 viewBox="0 0 512 512" style="enable-background:new 0 0 512 512;" xml:space="preserve">
<style type="text/css">
	.st0{fill:#FFFFFF;}
</style>
<path class="st0" d="M146.3,20c5.5,0,10-4.5,10-10s-4.5-10-10-10h0c-5.5,0-10,4.5-10,10S140.8,20,146.3,20z"/>
<path class="st0" d="M425.6,160.1c11.3,0,20.5-9.2,20.5-20.5v-119c0-11.3-9.2-20.5-20.5-20.5h-239c-5.5,0-10,4.5-10,10s4.5,10,10,10
	h239c0.3,0,0.5,0.3,0.5,0.5v119c0,0.3-0.3,0.5-0.5,0.5H86.5c-0.3,0-0.5-0.3-0.5-0.5v-119c0-0.3,0.3-0.5,0.5-0.5h31
	c5.5,0,10-4.5,10-10s-4.5-10-10-10h-31C75.2,0,66,9.2,66,20.5v119c0,11.3,9.2,20.5,20.5,20.5h11.3v89.4H92c-14.3,0-26,11.7-26,26
	c0,14.3,11.7,26,26,26h12.6c0.3,0.3,0.6,0.6,0.9,0.8L213.3,385l-104.9,80.5c-6.1,4.7-10,12-10.5,19.6c-0.5,6.9,1.9,13.2,6.5,17.9
	c5.9,5.9,13.3,9,20.5,9c5.4,0,10.6-1.7,15.2-5.2l116-89l116,89c4.5,3.5,9.8,5.2,15.2,5.2c7.2,0,14.5-3.1,20.5-9
	c4.7-4.7,7-11,6.5-17.9c-0.5-7.6-4.4-14.9-10.5-19.6L298.8,385l108.9-83.5h12.5c14.3,0,26-11.7,26-26c0-14.3-11.7-26-26-26h-5.9
	v-89.4H425.6z M117.9,160.1h12v89.4h-12V160.1z M137.3,301.5h19.9c0.3,0.3,0.6,0.6,0.9,0.8l81.5,62.6l-9.9,7.6L137.3,301.5z
	 M256.1,352.2l-66.1-50.8h132.3L256.1,352.2z M391.6,481.4c1.5,1.2,2.6,3.1,2.7,5c0.1,1.1-0.2,1.9-0.7,2.4c-1.9,1.9-6.1,4.6-9.3,2.1
	l-111.8-85.8l9.9-7.6L391.6,481.4z M127.9,491c-3.2,2.5-7.3-0.2-9.3-2.1c-0.5-0.5-0.8-1.4-0.7-2.4c0.1-1.9,1.2-3.8,2.7-5
	l234.5-179.9h19.7L127.9,491z M426.1,275.5c0,3.3-2.8,6-6,6H92c-3.3,0-6-2.8-6-6c0-3.3,2.8-6,6-6h180.2c5.5,0,10-4.5,10-10
	c0-5.5-4.5-10-10-10H149.9v-89.4h212.4v89.4h-21c-5.5,0-10,4.5-10,10c0,5.5,4.5,10,10,10h78.9C423.4,269.5,426.1,272.2,426.1,275.5z
	 M394.3,249.5h-12v-89.4h12V249.5z"/>
<path class="st0" d="M312.4,249.5c-5.5,0-10,4.5-10,10c0,5.5,4.5,10,10,10h0c5.5,0,10-4.5,10-10C322.5,254,318,249.5,312.4,249.5z"
	/>
<path class="st0" d="M307.3,67.4c-1.5-4.7-5.3-8.2-10-9.3l-19.2-4.5l-10.1-16.8c-2.4-4.1-6.9-6.7-11.8-6.8c0,0-0.1,0-0.1,0
	c-4.9,0-9.3,2.5-11.8,6.7l-10.2,16.9L214.9,58c-4.7,1.1-8.5,4.6-10,9.2c-1.5,4.6-0.5,9.6,2.7,13.3l12.9,14.9l-1.7,19.7
	c-0.4,4.8,1.7,9.4,5.6,12.3c3.9,2.9,9,3.4,13.4,1.5l18.2-7.7l17.8,7.5c1.9,0.9,3.9,1.3,5.9,1.3c2.7,0,5.4-0.8,7.8-2.4
	c4-2.8,6.3-7.6,5.9-12.5l-1.7-19.7l12.8-14.7C307.7,77,308.8,72,307.3,67.4z M273.8,85.5c-1.8,2-2.6,4.7-2.4,7.4l1.2,13.6l-12.6-5.3
	c-1.2-0.5-2.6-0.8-3.9-0.8s-2.7,0.3-3.9,0.8l-12.6,5.3l1.2-13.6c0.2-2.7-0.6-5.4-2.4-7.4l-8.9-10.3l13.3-3.1
	c2.6-0.6,4.9-2.3,6.3-4.6l7-11.7l7,11.7c1.4,2.3,3.7,4,6.3,4.6l13.3,3.1L273.8,85.5z"/>
</svg>
