<?xml version="1.0" encoding="utf-8"?>
<!-- Generator: Adobe Illustrator 23.1.0, SVG Export Plug-In . SVG Version: 6.00 Build 0)  -->
<svg version="1.1" id="Layer_1" xmlns="http://www.w3.org/2000/svg" xmlns:xlink="http://www.w3.org/1999/xlink" x="0px" y="0px"
	 viewBox="0 0 512 512" style="enable-background:new 0 0 512 512;" xml:space="preserve">
<style type="text/css">
	.st0{fill:#FFFFFF;}
</style>
<path class="st0" d="M339,218c5.5,0,10-4.5,10-10s-4.5-10-10-10s-10,4.5-10,10S333.5,218,339,218z"/>
<path class="st0" d="M73,78c5.5,0,10-4.5,10-10s-4.5-10-10-10s-10,4.5-10,10S67.5,78,73,78z"/>
<path class="st0" d="M118.1,343.9l15.2,6.5c12.5,5.4,26.9,5.4,39.4,0l15.1-6.5c6.8-2.9,13.4-6.2,19.8-9.9
	c8.9,65,53.2,122.7,116.5,149.9l15.2,6.5c12.5,5.4,26.9,5.4,39.4,0l15.1-6.5C464.3,453.8,512,384.8,512,309.3V188
	c0-16.5-13.5-30-30-30H306V48c0-16.5-13.5-30-30-30H30C13.5,18,0,31.5,0,48v121.3C0,244.9,47.8,313.8,118.1,343.9z M492,188v121.3
	c0,66.3-42.6,129.1-106,156.3l-15.1,6.5c-7.5,3.2-16.1,3.2-23.6,0l-15.2-6.5c-59.9-25.7-100.9-81.6-105.6-143.6
	c14.2-10.4,26.8-22.4,37.5-35.6c9,7.5,20.3,11.7,32.1,11.7c12.2,0,23.9-4.4,33.1-12.5c4.1-3.7,4.5-10,0.9-14.1
	c-3.7-4.1-10-4.5-14.1-0.9c-5.5,4.8-12.5,7.5-19.8,7.5s-14.4-2.7-19.8-7.5c-0.1-0.1-0.3-0.2-0.5-0.4c17.9-27.6,28.5-59.3,30.1-92.1
	H482C487.5,178,492,182.5,492,188z M20,48c0-5.5,4.5-10,10-10h246c5.5,0,10,4.5,10,10v121.3c0,68.3-43.5,129.5-106,156.3l-15.1,6.5
	c-7.5,3.2-16.1,3.2-23.6,0l-15.2-6.5c-63.4-27.2-106-90-106-156.3V48z"/>
<path class="st0" d="M213,198H93c-5.5,0-10,4.5-10,10c0,38.6,31.4,70,70,70s70-31.4,70-70C223,202.5,218.5,198,213,198z M153,258
	c-24.1,0-44.3-17.2-49-40h98C197.3,240.8,177.1,258,153,258z"/>
<path class="st0" d="M93,138c7.3,0,14.4,2.7,19.8,7.5c4.1,3.7,10.5,3.2,14.1-0.9c3.7-4.1,3.3-10.5-0.9-14.1
	c-9.1-8.1-20.9-12.5-33.1-12.5s-23.9,4.4-33.1,12.5c-4.1,3.7-4.5,10-0.9,14.1s10,4.5,14.1,0.9C78.6,140.7,85.7,138,93,138z"/>
<path class="st0" d="M179.9,130.5c-4.1,3.7-4.5,10-0.9,14.1c3.7,4.1,10,4.5,14.1,0.9c5.5-4.8,12.5-7.5,19.8-7.5s14.4,2.7,19.8,7.5
	c4.2,3.7,10.5,3.3,14.1-0.9c3.7-4.1,3.3-10.5-0.9-14.1c-9.1-8.1-20.9-12.5-33.1-12.5S189.1,122.4,179.9,130.5z"/>
<path class="st0" d="M113,78h120c5.5,0,10-4.5,10-10s-4.5-10-10-10H113c-5.5,0-10,4.5-10,10S107.5,78,113,78z"/>
<path class="st0" d="M289,408c0,5.5,4.5,10,10,10h120c5.5,0,10-4.5,10-10c0-38.6-31.4-70-70-70S289,369.4,289,408z M359,358
	c24.1,0,44.4,17.2,49,40h-98C314.6,375.2,334.9,358,359,358z"/>
<path class="st0" d="M438.8,270.5c-5.5,4.8-12.5,7.5-19.8,7.5s-14.4-2.7-19.8-7.5c-4.1-3.7-10.5-3.3-14.1,0.9
	c-3.7,4.1-3.3,10.5,0.9,14.1c9.1,8.1,20.9,12.5,33.1,12.5s23.9-4.4,33.1-12.5c4.1-3.7,4.5-10,0.9-14.1
	C449.3,267.2,443,266.8,438.8,270.5z"/>
<path class="st0" d="M379,218h60c5.5,0,10-4.5,10-10s-4.5-10-10-10h-60c-5.5,0-10,4.5-10,10S373.5,218,379,218z"/>
</svg>
