<?xml version="1.0" encoding="utf-8"?>
<!-- Generator: Adobe Illustrator 23.1.0, SVG Export Plug-In . SVG Version: 6.00 Build 0)  -->
<svg version="1.1" id="Capa_1" xmlns="http://www.w3.org/2000/svg" xmlns:xlink="http://www.w3.org/1999/xlink" x="0px" y="0px"
	 viewBox="0 0 512 512" style="enable-background:new 0 0 512 512;" xml:space="preserve">
<style type="text/css">
	.st0{fill:#FFFFFF;}
</style>
<path class="st0" d="M386.3,96.7c-1.2-3.6-4.3-6.2-8-6.8l-78-11.8L265,5.6c-1.7-3.4-5.2-5.6-9-5.6c-3.8,0-7.3,2.2-9,5.6l-35.3,72.5
	l-78,11.8c-3.7,0.6-6.8,3.2-8,6.8s-0.2,7.6,2.5,10.2l56.2,55.4l-12.9,77.9c-0.6,3.7,0.9,7.5,4,9.7c3.1,2.2,7.1,2.5,10.5,0.8
	l11.2-5.8L214.5,372h-6.2c-11.4,0-21.7,6.4-26.8,16.6L159.8,432H156c-16.5,0-30,13.5-30,30v40c0,5.5,4.5,10,10,10h75
	c5.5,0,10-4.5,10-10c0-5.5-4.5-10-10-10h-65v-30c0-5.5,4.5-10,10-10h200c5.5,0,10,4.5,10,10v30h-65c-5.5,0-10,4.5-10,10
	c0,5.5,4.5,10,10,10h75c5.5,0,10-4.5,10-10v-40c0-16.5-13.5-30-30-30h-3.8l-21.7-43.4c-5.1-10.2-15.4-16.6-26.8-16.6h-6.2
	l17.4-127.1l11.2,5.8c3.4,1.7,7.4,1.4,10.5-0.8c3.1-2.2,4.6-6,4-9.7l-12.9-77.9l56.2-55.4C386.6,104.3,387.5,100.3,386.3,96.7
	L386.3,96.7z M312.6,397.5l17.2,34.5H182.2l17.2-34.5c1.7-3.4,5.1-5.5,8.9-5.5h95.3C307.4,392,310.9,394.1,312.6,397.5z M234.7,372
	L216,235.1l40-20.8l40,20.8L277.3,372H234.7z M309.9,151.7c-2.3,2.3-3.4,5.6-2.8,8.8l10.5,63.3l-6-3.1h0l-50.9-26.4
	c-1.4-0.7-3-1.1-4.6-1.1s-3.2,0.4-4.6,1.1l-56.9,29.6l10.5-63.3c0.5-3.2-0.5-6.5-2.8-8.8l-45.7-45l63.4-9.6c3.3-0.5,6.1-2.6,7.5-5.5
	L256,32.8l28.6,58.8c1.4,3,4.2,5,7.5,5.5l63.4,9.6L309.9,151.7z"/>
<path class="st0" d="M256,114.1c-5.5,0-10,4.5-10,10v30c0,5.5,4.5,10,10,10c5.5,0,10-4.5,10-10v-30C266,118.5,261.5,114.1,256,114.1
	z"/>
<circle class="st0" cx="256" cy="502" r="10"/>
</svg>
