<?xml version="1.0" encoding="utf-8"?>
<!-- Generator: Adobe Illustrator 23.0.3, SVG Export Plug-In . SVG Version: 6.00 Build 0)  -->
<svg version="1.1" id="Layer_1" xmlns="http://www.w3.org/2000/svg" xmlns:xlink="http://www.w3.org/1999/xlink" x="0px" y="0px"
	 viewBox="0 0 300 300" style="enable-background:new 0 0 300 300;" xml:space="preserve">
<style type="text/css">
	.st0{fill:#FFFFFF;}
</style>
<path class="st0" d="M300,150c0,68.49-45.91,126.27-108.64,144.22l0.66-1.57l-0.56-112.31l39.48-0.55l4.45-46.15l-43.46,0.51
	l0.09-30.53c-0.93-21.87,18.9-22.24,18.9-22.24h27.25V40.24h-46.71c-44.2,2.5-47.81,51.7-47.81,51.7v41.14H106.4v47.82h37.25v117.31
	l1.17,1.7C64.38,297.18,0,231.11,0,150C0,67.16,67.16,0,150,0S300,67.16,300,150z"/>
</svg>
