<?xml version="1.0" encoding="utf-8"?>
<!-- Generator: Adobe Illustrator 23.0.3, SVG Export Plug-In . SVG Version: 6.00 Build 0)  -->
<svg version="1.1" id="Layer_1" xmlns="http://www.w3.org/2000/svg" xmlns:xlink="http://www.w3.org/1999/xlink" x="0px" y="0px"
	 viewBox="0 0 300 300" style="enable-background:new 0 0 300 300;" xml:space="preserve">
<style type="text/css">
	.st0{fill:#FFFFFF;}
</style>
<path class="st0" d="M183.41,149.58c0,18.42-14.99,33.41-33.41,33.41s-33.41-14.99-33.41-33.41c0-18.42,14.99-33.4,33.41-33.4
	S183.41,131.16,183.41,149.58z"/>
<path class="st0" d="M196.84,68.36h-93.68c-18.96,0-34.38,15.42-34.38,34.38v93.68c0,18.96,15.42,34.38,34.38,34.38h93.68
	c18.96,0,34.38-15.42,34.38-34.38v-93.68C231.22,83.78,215.8,68.36,196.84,68.36z M150,197.99c-26.69,0-48.41-21.72-48.41-48.41
	c0-26.69,21.72-48.4,48.41-48.4s48.41,21.71,48.41,48.4C198.41,176.27,176.69,197.99,150,197.99z M201.19,108.62
	c-5.98,0-10.84-4.85-10.84-10.84s4.86-10.84,10.84-10.84c5.99,0,10.84,4.85,10.84,10.84S207.18,108.62,201.19,108.62z"/>
<path class="st0" d="M150,0C67.16,0,0,67.16,0,150s67.16,150,150,150s150-67.16,150-150S232.84,0,150,0z M246.22,196.42
	c0,27.23-22.15,49.38-49.38,49.38h-93.68c-27.23,0-49.38-22.15-49.38-49.38v-93.68c0-27.23,22.15-49.38,49.38-49.38h93.68
	c27.23,0,49.38,22.15,49.38,49.38V196.42z"/>
</svg>
