<?xml version="1.0" encoding="utf-8"?>
<!-- Generator: Adobe Illustrator 23.0.3, SVG Export Plug-In . SVG Version: 6.00 Build 0)  -->
<svg version="1.1" id="Layer_1" xmlns="http://www.w3.org/2000/svg" xmlns:xlink="http://www.w3.org/1999/xlink" x="0px" y="0px"
	 viewBox="0 0 300 300" style="enable-background:new 0 0 300 300;" xml:space="preserve">
<style type="text/css">
	.st0{fill:#FFFFFF;}
</style>
<path class="st0" d="M150,0C67.16,0,0,67.16,0,150s67.16,150,150,150s150-67.16,150-150S232.84,0,150,0z M210.92,238.72
	c0,0-7.6,6.49-30.76,9.64c-23.17,3.15-34.84-2.22-51.15-8.9c-16.31-6.67-17.42-32.24-17.42-32.24v-75.25H89.72v-26.68
	c40.21-14.46,39.29-53.75,39.29-53.75h28.17v50.41h46.7l-0.74,30.02h-45.59c0,0,0,44.48,0,60.79s3.33,15.57,3.33,15.57
	s4.27,9.45,20.76,8.89c16.5-0.55,29.28-9.26,29.28-9.26V238.72z"/>
</svg>
